<?xml version="1.0" encoding="utf-8"?>
<!-- Generator: Adobe Illustrator 16.0.4, SVG Export Plug-In . SVG Version: 6.00 Build 0)  -->
<!DOCTYPE svg PUBLIC "-//W3C//DTD SVG 1.1//EN" "http://www.w3.org/Graphics/SVG/1.1/DTD/svg11.dtd">
<svg version="1.1" id="Layer_1" xmlns="http://www.w3.org/2000/svg" xmlns:xlink="http://www.w3.org/1999/xlink" x="0px" y="0px"
	 width="1147.559px" height="1185.95px" viewBox="0 0 1147.559 1185.95" enable-background="new 0 0 1147.559 1185.95"
	 xml:space="preserve">
<g id="o" display="none">
	<path display="inline" fill="#0E0A0E" d="M-1983.876,303.717c-82.872,0-427.025-0.581-512.312-0.743
		c-26.505-0.049-48.616,19.199-48.668,50.476c-0.421,251.088-0.421,664.51-0.421,833.39c0,37.691,19.825,52.896,55.497,52.963
		c14.107,0.028,423.899,0.28,496.71,0.418c67.226,0.127,76.643-21.596,76.643-56.945c0-170.159,0-533.144-0.065-824.428
		C-1916.499,328.239-1943.12,303.717-1983.876,303.717z M-2014.423,418.873c0.2,16.616,0.252,527.508,0.252,668.626
		c0,25.739-6.104,40.861-41.987,40.794l-269.179-0.271c-15.479,0-32.205-6.09-32.205-29.315c0-63.189-0.367-233.839-0.443-268.797
		c-0.009-4.077-1.775-9.718-3.014-12.22c-1.63-3.291-73.18-146.946-73.18-146.946s-0.036-142.371-0.036-255.979
		c0-23.15,22.587-32.542,54.782-32.481c50.966,0.097,315.685,0.301,329.201,0.301
		C-2029.096,382.585-2014.767,390.387-2014.423,418.873z"/>
</g>
<path id="n" display="none" fill="#0E0A0E" d="M-1691.856,400.152c0,75.334,0,354.537,0,398.508c0,3.803,0.846,7.586,2.312,10.601
	c9.217,18.954,42.932,88.281,44.822,91.993c1.292,2.536,3.619,10.561,3.612,16.24c-0.048,38.454-0.233,194.002-0.233,289.289
	c0,23.904-8.156,38.19-37.127,38.139c-28.973-0.048-111.64,0.021-120.95,0.022c-23.674,0.004-35.98-23.35-36.305-53.043
	c-0.392-35.576-0.754-689.743-0.282-856.067c0.063-22.293,18.844-32.859,40.137-32.859c66.73,0,106.73,0.405,162.515,0.405
	c35.666,0,42.757,16.888,66.751,49.678c70.627,96.519,150.596,206.788,255.14,349.519c0-126.496,0-261.668,0-383.936
	c0-12.542,9.468-15.258,26.067-15.261c37.843-0.006,35.93,0.003,55.021,0c12.414-0.003,21.615,3.636,21.615,15.608
	c0,126.999-0.086,714.238-0.086,895.607c0,17.148-10.479,30.18-24.969,30.155c-14.488-0.025-35.264,0.115-45.61,0.1
	c-21.27-0.03-32.188-12.976-32.157-38.976c0.12-100.982,0.12-227.664-0.376-372.807
	c-129.152-173.686-237.23-319.073-319.588-432.085c-12.109-16.614-13.497-19.676-34.808-19.712
	C-1683.976,381.239-1691.856,382.235-1691.856,400.152z"/>
<g id="a" display="none">
	<path display="inline" fill="#0E0A0E" d="M79.953,303.145c-47.853,0-285.503,0.129-384.293-0.058
		c-23.103-0.043-41.53,11.514-41.53,37.552c0,111.826,0.188,154.235,0,294.464c-0.01,7.264-0.901,11.58-4.949,15.634
		c-31.312,31.365-42.006,41.339-66.13,67.655c-3.323,3.626-5.834,9.982-5.834,15.29c0,145.701,0,275.106,0.002,477.683
		c0,23.351,13.508,31.184,32.867,31.184c23.435,0,132.594-0.06,132.594-0.06c23.462,0.044,33.369-18.115,33.369-34.762
		c0-157.933,0-378.777,0-442.334c0-20.135,10.254-21.92,25.851-21.92c84.189,0,212.078,0.209,280.502,0.209
		c11.208,0,34.102,12.462,33.835,29.013c-0.697,42.571-1.726,429.508-1.726,447.191c0,14.334,5.674,22.428,18.661,22.428
		c11.435,0,37.448,0,55.534,0c12.993,0,17.448-6.516,17.448-19.077c0-99.313,0.402-383.843,0.402-477.837
		c0-4.393-1.427-11.754-4.563-15.292c-29.034-32.763-40.125-45.76-75.082-83.839c-5.338-5.815-12.4-18.278-12.4-32.054
		c0-90.875-0.144-182.263,0-270.351C114.539,324.985,97.275,303.145,79.953,303.145z M32.666,397.971
		c0,45.093,0.621,179.33,0.267,248.072c-0.067,13.061-5.612,21.237-13.676,21.237c-10.399,0-231.479-0.129-248.118-0.129
		c-13.939,0-15.733-14.277-15.733-26.021c0-58.501,0.275-182.298,0.275-242.72c0-19.36,7.017-28.341,27.996-28.302
		c16.648,0.032,207.54-0.304,225.22-0.27C26.572,369.873,32.666,384.462,32.666,397.971z"/>
</g>
<path id="T" display="none" fill="#0E0A0E" d="M310.759,424.677c0,114.626,0,519.645,0.903,776.663
	c0.09,25.725,15.742,40.509,38.834,40.553c36.789,0.069,109.787,0,122.27,0c26.999,0,39.019-10.752,39.019-40.299
	c0-88.41,0-296.943,0-472.518c-27.482-57.473-53.473-110.979-80.721-168.349c0-70.331-0.439-102.59-0.073-147.258
	c0.177-21.557,11.281-26.165,26.694-26.165c52.508,0,171.313-0.672,209.551-0.672c13.622,0,17.373-7.918,17.457-23.934
	c0.065-12.515,0.073-23.315,0.073-40.435c0-12.892-5.775-18.548-19.863-18.548c-121.56,0-307.824,0.092-482.269,0.092
	c-17.581,0-24.894,3.968-24.894,17.71c0,16.637-0.126,33.489-0.126,41.007c0,17.32,11.762,24.551,24.761,24.576
	c22.29,0.042,78.244-0.026,92.213,0C288.93,387.126,310.759,391.479,310.759,424.677z"/>
<path id="C_1_" display="none" fill="#0E0A0E" d="M-2769.323,553.285c-0.177,15.935,11.817,32.671,26.527,32.669
	c25.871-0.002,71.427-0.673,103.401-0.677c13.19-0.002,17.697-9.045,17.853-26.601c0.586-65.962,0.586-104.683,0.586-200.461
	c0-32.365-9.235-54.835-50.411-54.835c-96.542,0-378.27,0-494.171,0c-53.801,0-84.759,11.532-84.759,65.28
	c0,182.129,0,630.192,0,805.191c0,57.27,23.728,68.547,61.286,68.615c10.358,0.016,512.303-0.056,542.918-0.059
	c19.789-0.002,23.678-16.855,24.107-34.471c0.714-29.417-0.474-256.968-0.707-304.72c-0.054-10.627-3.882-17.983-12.806-17.983
	c-10.696,0.002-69.827-0.12-74.758-0.12c-7.443,0-11.933,4.585-11.931,17.543c0.01,58.612,0.643,161.106,0.038,193.367
	c-0.211,11.27-3.59,22.702-15.768,22.702c-45.695,0.006-225.099,0.151-277.453,0.155c-26.074,0.004-38.88-13.851-38.88-41.4
	c0-55.031,0.144-184.385,0.18-215.654c0.005-4.433-1.165-9.231-3.639-14.163c-2.039-4.064-42.675-85.085-56.908-113.463
	c-3.038-6.058-4.862-14.798-4.843-23.708c0.109-51.495,0.478-230.867,0.478-296.182c0-29.453,18.094-32.562,50.725-32.505
	c17.917,0.033,240.233,0.267,268.269,0.267c20.189,0,31.855,4.312,31.996,31.409
	C-2767.594,489.521-2767.862,423.374-2769.323,553.285z"/>
<path id="c" display="none" fill="#0E0A0E" d="M-647.279,554.319c-0.178,15.935,11.816,32.671,26.527,32.669
	c25.87-0.002,71.427-0.673,103.401-0.677c13.189-0.002,17.697-9.045,17.853-26.601c0.585-65.962,0.585-104.683,0.585-200.461
	c0-32.365-9.233-54.835-50.41-54.835c-96.541,0-378.27,0-494.171,0c-53.801,0-84.759,11.532-84.759,65.28
	c0,182.13,0,630.192,0,805.192c0,57.27,23.597,67.536,61.155,67.604c10.358,0.016,512.209,0.002,542.824,0
	c19.789-0.002,25.361-15.862,25.361-33.484c0-81.77,0-237.407,0-302.617c0-10.627-6.759-20.12-15.682-20.12
	c-15.284,0-57.057-0.115-70.305-0.115c-9.68,0-15.246,7.532-15.244,20.489c0.011,58.613,0.038,143.666,0.038,190.417
	c0,11.271-3.59,22.702-15.768,22.702c-45.695,0.006-225.099,0.151-277.453,0.155c-26.073,0.004-38.879-13.851-38.879-41.401
	c0-49.289,0.115-158.196,0.164-202.855c0.014-12.271-3.596-26.804-8.761-36.953c-4.562-8.967-35.916-70.578-49.896-98.051
	c-4.098-8.053-6.69-19.529-6.67-30.495c0.106-55.778,0.43-230.786,0.43-294.815c0-29.453,18.093-32.562,50.724-32.504
	c17.917,0.033,240.233,0.267,268.27,0.267c20.189,0,31.854,4.312,31.996,31.409C-645.55,490.556-645.819,424.409-647.279,554.319z"
	/>
<g id="cat">
	<polygon points="405.725,274.88 543.228,137.502 405.85,0 	"/>
	<polygon points="690.97,0.648 553.467,138.026 690.845,275.528 	"/>
	<path d="M491.312,359.758c43.049-0.012,83.477-0.023,119.056-0.028l75.548-75.547l-137.44-137.44l-137.44,137.44l75.577,75.577
		C488.176,359.758,489.754,359.758,491.312,359.758z"/>
	<polygon points="696.439,302.082 696.439,884.133 964.411,572.639 	"/>
	<path d="M623.038,359.729c11.489-0.001,22.462-0.002,32.825-0.002c10.116,0,22.176,3.669,22.176,21.147
		c0,12.5-0.004,21.456-0.058,31.648c-0.033,6.355-0.136,25.694-20.48,25.694c-17.584,0-46.911,0.037-77.143,0.074
		c-12.077,0.015-24.309,0.03-35.996,0.042h-50.394l25.17,25.201l167.258,167.408l0.152-334.665L623.038,359.729z"/>
	<path d="M970.471,1016.064l0.084-436.801l-379.226,443.632l164.549,0.076c-0.272,0.033-0.544,0.065-0.818,0.1h158.402
		c0.412-0.012,0.816-0.017,1.226-0.026l32.86,0.015c107.72,2.745,173.081,32.005,173.081,60.122
		c0,45.153-266.203,82.244-564.128,82.244c-297.926,0-538.46-33.301-538.46-80.814c0-14.429,46.279-18.363,72.904-35.222
		l0.005,0.001c18.743-10.831,20.185-23.198,18.197-25.983c0.016-0.195,0.041-0.385,0.054-0.582
		c-0.013,0.195-0.041,0.383-0.057,0.577c-0.268-0.372-0.594-0.577-0.949-0.577c0.751,13.011-15.691,22.225-19.919,24.24
		C56.026,1062.438,0,1068.471,0,1084.611c0,50.393,257.792,101.339,573.778,101.339c315.987,0,573.78-40.691,573.78-100.094
		C1147.559,1058.126,1086.992,1025.397,970.471,1016.064z"/>
</g>
</svg>
